<svg xmlns="http://www.w3.org/2000/svg" version="1.1" xmlns:xlink="http://www.w3.org/1999/xlink" xmlns:svgjs="http://svgjs.dev/svgjs" width="2000" height="1999" viewBox="0 0 2000 1999"><g transform="matrix(1,0,0,1,-0.431486880466764,-0.4312711370263287)"><svg viewBox="0 0 343 343" data-background-color="#ffffff" preserveAspectRatio="xMidYMid meet" height="1999" width="2000" xmlns="http://www.w3.org/2000/svg" xmlns:xlink="http://www.w3.org/1999/xlink"><g id="tight-bounds" transform="matrix(1,0,0,1,0.0740000000000407,0.07400000000001228)"><svg viewBox="0 0 342.85155851775386 342.85155851775386" height="342.85155851775386" width="342.85155851775386"><g><svg></svg></g><g><svg viewBox="0 0 342.85155851775386 342.85155851775386" height="342.85155851775386" width="342.85155851775386"><g><path d="M0 171.426c0-94.676 76.75-171.426 171.426-171.426 94.676 0 171.426 76.75 171.426 171.426 0 94.676-76.75 171.426-171.426 171.426-94.676 0-171.426-76.75-171.426-171.426zM171.426 332.227c88.808 0 160.801-71.993 160.801-160.801 0-88.808-71.993-160.801-160.801-160.801-88.808 0-160.801 71.993-160.801 160.801 0 88.808 71.993 160.801 160.801 160.801z" data-fill-palette-color="tertiary" fill="#c48be4" stroke="transparent"></path><ellipse rx="164.56874808852186" ry="164.56874808852186" cx="171.42577925887693" cy="171.42577925887693" fill="#c48be4" stroke="transparent" stroke-width="0" fill-opacity="1" data-fill-palette-color="tertiary"></ellipse></g><g transform="matrix(1,0,0,1,64.84655864529837,112.51868337011686)"><svg viewBox="0 0 213.1584412271571 117.81419177752015" height="117.81419177752015" width="213.1584412271571"><g><svg viewBox="0 0 213.1584412271571 117.81419177752015" height="117.81419177752015" width="213.1584412271571"><g><svg viewBox="0 0 213.1584412271571 117.81419177752015" height="117.81419177752015" width="213.1584412271571"><g id="textblocktransform"><svg viewBox="0 0 213.1584412271571 117.81419177752015" height="117.81419177752015" width="213.1584412271571" id="textblock"><g><svg viewBox="0 0 213.1584412271571 117.81419177752015" height="117.81419177752015" width="213.1584412271571"><g transform="matrix(1,0,0,1,0,0)"><svg width="213.1584412271571" viewBox="0.3 -25.75 48.7599999324 26.95" height="117.81419177752015" data-palette-color="#ffffff"><path d="M0.5 1.2L0.5 1.2Q0.3 1.2 0.3 1L0.3 1Q0.3 0.6 1.23-0.7 2.15-2 3.58-3.7 5-5.4 6.48-7.1 7.95-8.8 9.13-10.08 10.3-11.35 10.65-11.75L10.65-11.75Q9.45-11.6 7.98-11.25 6.5-10.9 5.18-10.25 3.85-9.6 3.15-8.5L3.15-8.5Q2.75-7.95 2.75-7.25L2.75-7.25Q2.75-6.55 3.13-6.25 3.5-5.95 3.5-5.7L3.5-5.7Q3.5-5.6 3.2-5.6L3.2-5.6Q2.25-5.6 1.68-6.58 1.1-7.55 1.1-8.4L1.1-8.4Q1.1-8.95 1.25-9.4L1.25-9.4Q1.8-11.1 3.15-12.13 4.5-13.15 6.3-13.68 8.1-14.2 9.93-14.35 11.75-14.5 13.25-14.5L13.25-14.5Q15.7-17 18.3-19.45 20.9-21.9 23.8-23.85L23.8-23.85Q24.85-24.55 26.1-25 27.35-25.45 28.65-25.45L28.65-25.45Q30.05-25.45 31.1-24.75 32.15-24.05 32.15-22.5L32.15-22.5Q32.15-21.35 31.63-20.23 31.1-19.1 30.5-18.15L30.5-18.15Q30.15-17.6 29.33-16.2 28.5-14.8 27.4-12.95 26.3-11.1 25.15-9.08 24-7.05 23.03-5.23 22.05-3.4 21.45-2.08 20.85-0.75 20.85-0.25L20.85-0.25Q20.85-0.1 20.9 0L20.9 0Q20.3 0.3 19.5 0.3L19.5 0.3Q18.55 0.3 18.32-0.25 18.1-0.8 18.1-1.65L18.1-1.65Q18.1-2.4 18.57-3.58 19.05-4.75 19.73-6.03 20.4-7.3 21.08-8.45 21.75-9.6 22.2-10.35L22.2-10.35Q21.85-10.85 20.98-11.18 20.1-11.5 18.98-11.7 17.85-11.9 16.85-12 15.85-12.1 15.3-12.1L15.3-12.1Q14.5-12.1 13.7-12.05 12.9-12 12.1-11.9L12.1-11.9Q10.2-9.9 8.35-7.8 6.5-5.7 4.75-3.55L4.75-3.55Q3.9-2.55 3.05-1.45 2.2-0.35 1.3 0.65L1.3 0.65Q1.15 0.8 0.95 1 0.75 1.2 0.5 1.2ZM22.6-11L22.6-11Q22.95-11.6 23.68-12.83 24.4-14.05 25.28-15.53 26.15-17 26.95-18.48 27.75-19.95 28.33-21.13 28.9-22.3 29-22.8L29-22.8Q29.25-23.8 28.6-24.05 27.95-24.3 27.45-24.3L27.45-24.3Q26.65-24.3 25.7-23.9 24.75-23.5 24.1-23.05L24.1-23.05Q21.5-21.2 19.1-18.98 16.7-16.75 14.5-14.45L14.5-14.45Q15.3-14.4 16.57-14.23 17.85-14.05 19.18-13.68 20.5-13.3 21.48-12.65 22.45-12 22.6-11ZM33.25 0.6L33.25 0.6Q31.45 0.6 30.27-0.28 29.1-1.15 28.55-2.6 28-4.05 27.9-5.65L27.9-5.65 28.25-5.65Q28.6-3.95 29.75-2.65 30.9-1.35 32.75-1.35L32.75-1.35Q34.15-1.35 35.17-2.2 36.2-3.05 36.75-4.33 37.3-5.6 37.3-6.85L37.3-6.85Q37.3-8.55 36.55-9.83 35.8-11.1 34.82-12.18 33.85-13.25 33.1-14.38 32.35-15.5 32.35-16.9L32.35-16.9Q32.35-17.4 32.45-17.85 32.55-18.3 32.7-18.75L32.7-18.75Q33.2-20.15 34.8-21.43 36.4-22.7 38.5-23.68 40.6-24.65 42.62-25.2 44.65-25.75 46.05-25.75L46.05-25.75Q47.75-25.75 48.22-25.13 48.7-24.5 49.05-23.05L49.05-23.05Q49.1-22.95 48.9-22.9 48.7-22.85 48.6-22.85L48.6-22.85Q47.7-22.65 46.27-22.03 44.85-21.4 43.65-20.53 42.45-19.65 42.2-18.65L42.2-18.65 41.75-18.7Q42-19.95 43-21.15 44-22.35 45.05-23.1L45.05-23.1Q43.9-23 42.17-22.35 40.45-21.7 38.72-20.68 37-19.65 35.82-18.4 34.65-17.15 34.65-15.8L34.65-15.8Q34.65-14.45 35.37-13.25 36.1-12.05 37.02-10.8 37.95-9.55 38.67-8.18 39.4-6.8 39.4-5.15L39.4-5.15Q39.4-3.5 38.52-2.2 37.65-0.9 36.25-0.15 34.85 0.6 33.25 0.6Z" opacity="1" transform="matrix(1,0,0,1,0,0)" fill="#ffffff" class="wordmark-text-0" data-fill-palette-color="quaternary" id="text-0"></path></svg></g></svg></g></svg></g></svg></g></svg></g></svg></g></svg></g><defs></defs></svg><rect width="342.85155851775386" height="342.85155851775386" fill="none" stroke="none" visibility="hidden"></rect></g></svg></g></svg>